<?xml version="1.0" encoding="UTF-8" standalone="no"?>
<!DOCTYPE svg PUBLIC "-//W3C//DTD SVG 1.1//EN"
 "http://www.w3.org/Graphics/SVG/1.1/DTD/svg11.dtd">
<!-- Generated by graphviz version 5.0.0 (20220707.1540)
 -->
<!-- Title: dependencies Pages: 1 -->
<svg width="594pt" height="247pt"
 viewBox="0.00 0.00 594.00 246.80" xmlns="http://www.w3.org/2000/svg" xmlns:xlink="http://www.w3.org/1999/xlink">
<g id="graph0" class="graph" transform="scale(1 1) rotate(0) translate(4 242.8)">
<title>dependencies</title>
<polygon fill="white" stroke="transparent" points="-4,4 -4,-242.8 590,-242.8 590,4 -4,4"/>
<text text-anchor="middle" x="293" y="-8.2" font-family="sans-serif" font-size="14.00">dependencies</text>
<g id="clust1" class="cluster">
<title>cluster_SecurityModule</title>
<polygon fill="none" stroke="black" stroke-dasharray="1,5" points="8,-32.8 8,-230.8 578,-230.8 578,-32.8 8,-32.8"/>
</g>
<g id="clust6" class="cluster">
<title>cluster_SecurityModule_providers</title>
<polygon fill="none" stroke="black" points="262,-40.8 262,-92.8 570,-92.8 570,-40.8 262,-40.8"/>
</g>
<g id="clust3" class="cluster">
<title>cluster_SecurityModule_imports</title>
<polygon fill="none" stroke="black" points="16,-40.8 16,-92.8 254,-92.8 254,-40.8 16,-40.8"/>
</g>
<g id="clust4" class="cluster">
<title>cluster_SecurityModule_exports</title>
<polygon fill="none" stroke="black" points="204,-170.8 204,-222.8 328,-222.8 328,-170.8 204,-170.8"/>
</g>
<!-- AccountsModule -->
<g id="node1" class="node">
<title>AccountsModule</title>
<polygon fill="#8dd3c7" stroke="black" points="246.43,-84.8 243.43,-88.8 222.43,-88.8 219.43,-84.8 133.57,-84.8 133.57,-48.8 246.43,-48.8 246.43,-84.8"/>
<text text-anchor="middle" x="190" y="-62.6" font-family="Times,serif" font-size="14.00">AccountsModule</text>
</g>
<!-- SecurityModule -->
<g id="node3" class="node">
<title>SecurityModule</title>
<polygon fill="#8dd3c7" stroke="black" points="319.21,-149.8 316.21,-153.8 295.21,-153.8 292.21,-149.8 212.79,-149.8 212.79,-113.8 319.21,-113.8 319.21,-149.8"/>
<text text-anchor="middle" x="266" y="-127.6" font-family="Times,serif" font-size="14.00">SecurityModule</text>
</g>
<!-- AccountsModule&#45;&gt;SecurityModule -->
<g id="edge1" class="edge">
<title>AccountsModule&#45;&gt;SecurityModule</title>
<path fill="none" stroke="black" d="M229.56,-84.91C229.56,-84.91 229.56,-103.79 229.56,-103.79"/>
<polygon fill="black" stroke="black" points="226.06,-103.79 229.56,-113.79 233.06,-103.79 226.06,-103.79"/>
</g>
<!-- RolesModule -->
<g id="node2" class="node">
<title>RolesModule</title>
<polygon fill="#8dd3c7" stroke="black" points="115.94,-84.8 112.94,-88.8 91.94,-88.8 88.94,-84.8 24.06,-84.8 24.06,-48.8 115.94,-48.8 115.94,-84.8"/>
<text text-anchor="middle" x="70" y="-62.6" font-family="Times,serif" font-size="14.00">RolesModule</text>
</g>
<!-- RolesModule&#45;&gt;SecurityModule -->
<g id="edge2" class="edge">
<title>RolesModule&#45;&gt;SecurityModule</title>
<path fill="none" stroke="black" d="M70,-84.91C70,-104.14 70,-131.8 70,-131.8 70,-131.8 202.7,-131.8 202.7,-131.8"/>
<polygon fill="black" stroke="black" points="202.7,-135.3 212.7,-131.8 202.7,-128.3 202.7,-135.3"/>
</g>
<!-- SecurityService  -->
<g id="node4" class="node">
<title>SecurityService </title>
<polygon fill="#fb8072" stroke="black" points="320.13,-214.8 211.87,-214.8 211.87,-178.8 320.13,-178.8 320.13,-214.8"/>
<text text-anchor="middle" x="266" y="-192.6" font-family="Times,serif" font-size="14.00">SecurityService </text>
</g>
<!-- SecurityModule&#45;&gt;SecurityService  -->
<g id="edge3" class="edge">
<title>SecurityModule&#45;&gt;SecurityService </title>
<path fill="none" stroke="black" stroke-dasharray="5,2" d="M266,-149.91C266,-149.91 266,-168.79 266,-168.79"/>
<polygon fill="black" stroke="black" points="262.5,-168.79 266,-178.79 269.5,-168.79 262.5,-168.79"/>
</g>
<!-- LocalStrategy -->
<g id="node5" class="node">
<title>LocalStrategy</title>
<ellipse fill="#fdb462" stroke="black" cx="497" cy="-66.8" rx="65.4" ry="18"/>
<text text-anchor="middle" x="497" y="-62.6" font-family="Times,serif" font-size="14.00">LocalStrategy</text>
</g>
<!-- LocalStrategy&#45;&gt;SecurityModule -->
<g id="edge4" class="edge">
<title>LocalStrategy&#45;&gt;SecurityModule</title>
<path fill="none" stroke="black" d="M497,-84.91C497,-104.14 497,-131.8 497,-131.8 497,-131.8 329.29,-131.8 329.29,-131.8"/>
<polygon fill="black" stroke="black" points="329.29,-128.3 319.29,-131.8 329.29,-135.3 329.29,-128.3"/>
</g>
<!-- SecurityService -->
<g id="node6" class="node">
<title>SecurityService</title>
<ellipse fill="#fdb462" stroke="black" cx="342" cy="-66.8" rx="72.35" ry="18"/>
<text text-anchor="middle" x="342" y="-62.6" font-family="Times,serif" font-size="14.00">SecurityService</text>
</g>
<!-- SecurityService&#45;&gt;SecurityModule -->
<g id="edge5" class="edge">
<title>SecurityService&#45;&gt;SecurityModule</title>
<path fill="none" stroke="black" d="M294.46,-80.58C294.46,-80.58 294.46,-103.35 294.46,-103.35"/>
<polygon fill="black" stroke="black" points="290.96,-103.35 294.46,-113.35 297.96,-103.35 290.96,-103.35"/>
</g>
</g>
</svg>
