<?xml version="1.0" encoding="UTF-8" standalone="no"?>
<!DOCTYPE svg PUBLIC "-//W3C//DTD SVG 1.1//EN"
 "http://www.w3.org/Graphics/SVG/1.1/DTD/svg11.dtd">
<!-- Generated by graphviz version 5.0.0 (20220707.1540)
 -->
<!-- Title: dependencies Pages: 1 -->
<svg width="594pt" height="247pt"
 viewBox="0.00 0.00 594.00 246.80" xmlns="http://www.w3.org/2000/svg" xmlns:xlink="http://www.w3.org/1999/xlink">
<g id="graph0" class="graph" transform="scale(1 1) rotate(0) translate(4 242.8)">
<title>dependencies</title>
<polygon fill="white" stroke="transparent" points="-4,4 -4,-242.8 590,-242.8 590,4 -4,4"/>
<text text-anchor="middle" x="293" y="-8.2" font-family="sans-serif" font-size="14.00">dependencies</text>
<g id="clust1" class="cluster">
<title>cluster_SecurityModule</title>
<polygon fill="none" stroke="black" stroke-dasharray="1,5" points="8,-32.8 8,-230.8 578,-230.8 578,-32.8 8,-32.8"/>
</g>
<g id="clust3" class="cluster">
<title>cluster_SecurityModule_imports</title>
<polygon fill="none" stroke="black" points="332,-40.8 332,-92.8 570,-92.8 570,-40.8 332,-40.8"/>
</g>
<g id="clust6" class="cluster">
<title>cluster_SecurityModule_providers</title>
<polygon fill="none" stroke="black" points="16,-40.8 16,-92.8 324,-92.8 324,-40.8 16,-40.8"/>
</g>
<g id="clust4" class="cluster">
<title>cluster_SecurityModule_exports</title>
<polygon fill="none" stroke="black" points="256,-170.8 256,-222.8 380,-222.8 380,-170.8 256,-170.8"/>
</g>
<!-- AccountsModule -->
<g id="node1" class="node">
<title>AccountsModule</title>
<polygon fill="#8dd3c7" stroke="black" points="562.43,-84.8 559.43,-88.8 538.43,-88.8 535.43,-84.8 449.57,-84.8 449.57,-48.8 562.43,-48.8 562.43,-84.8"/>
<text text-anchor="middle" x="506" y="-62.6" font-family="Times,serif" font-size="14.00">AccountsModule</text>
</g>
<!-- SecurityModule -->
<g id="node3" class="node">
<title>SecurityModule</title>
<polygon fill="#8dd3c7" stroke="black" points="371.21,-149.8 368.21,-153.8 347.21,-153.8 344.21,-149.8 264.79,-149.8 264.79,-113.8 371.21,-113.8 371.21,-149.8"/>
<text text-anchor="middle" x="318" y="-127.6" font-family="Times,serif" font-size="14.00">SecurityModule</text>
</g>
<!-- AccountsModule&#45;&gt;SecurityModule -->
<g id="edge1" class="edge">
<title>AccountsModule&#45;&gt;SecurityModule</title>
<path fill="none" stroke="black" d="M506,-84.91C506,-104.14 506,-131.8 506,-131.8 506,-131.8 381.12,-131.8 381.12,-131.8"/>
<polygon fill="black" stroke="black" points="381.12,-128.3 371.12,-131.8 381.12,-135.3 381.12,-128.3"/>
</g>
<!-- RolesModule -->
<g id="node2" class="node">
<title>RolesModule</title>
<polygon fill="#8dd3c7" stroke="black" points="431.94,-84.8 428.94,-88.8 407.94,-88.8 404.94,-84.8 340.06,-84.8 340.06,-48.8 431.94,-48.8 431.94,-84.8"/>
<text text-anchor="middle" x="386" y="-62.6" font-family="Times,serif" font-size="14.00">RolesModule</text>
</g>
<!-- RolesModule&#45;&gt;SecurityModule -->
<g id="edge2" class="edge">
<title>RolesModule&#45;&gt;SecurityModule</title>
<path fill="none" stroke="black" d="M355.69,-84.91C355.69,-84.91 355.69,-103.79 355.69,-103.79"/>
<polygon fill="black" stroke="black" points="352.19,-103.79 355.69,-113.79 359.19,-103.79 352.19,-103.79"/>
</g>
<!-- SecurityService  -->
<g id="node4" class="node">
<title>SecurityService </title>
<polygon fill="#fb8072" stroke="black" points="372.13,-214.8 263.87,-214.8 263.87,-178.8 372.13,-178.8 372.13,-214.8"/>
<text text-anchor="middle" x="318" y="-192.6" font-family="Times,serif" font-size="14.00">SecurityService </text>
</g>
<!-- SecurityModule&#45;&gt;SecurityService  -->
<g id="edge3" class="edge">
<title>SecurityModule&#45;&gt;SecurityService </title>
<path fill="none" stroke="black" stroke-dasharray="5,2" d="M318,-149.91C318,-149.91 318,-168.79 318,-168.79"/>
<polygon fill="black" stroke="black" points="314.5,-168.79 318,-178.79 321.5,-168.79 314.5,-168.79"/>
</g>
<!-- LocalStrategy -->
<g id="node5" class="node">
<title>LocalStrategy</title>
<ellipse fill="#fdb462" stroke="black" cx="251" cy="-66.8" rx="65.4" ry="18"/>
<text text-anchor="middle" x="251" y="-62.6" font-family="Times,serif" font-size="14.00">LocalStrategy</text>
</g>
<!-- LocalStrategy&#45;&gt;SecurityModule -->
<g id="edge4" class="edge">
<title>LocalStrategy&#45;&gt;SecurityModule</title>
<path fill="none" stroke="black" d="M290.55,-81.23C290.55,-81.23 290.55,-103.69 290.55,-103.69"/>
<polygon fill="black" stroke="black" points="287.05,-103.69 290.55,-113.69 294.05,-103.69 287.05,-103.69"/>
</g>
<!-- SecurityService -->
<g id="node6" class="node">
<title>SecurityService</title>
<ellipse fill="#fdb462" stroke="black" cx="96" cy="-66.8" rx="72.35" ry="18"/>
<text text-anchor="middle" x="96" y="-62.6" font-family="Times,serif" font-size="14.00">SecurityService</text>
</g>
<!-- SecurityService&#45;&gt;SecurityModule -->
<g id="edge5" class="edge">
<title>SecurityService&#45;&gt;SecurityModule</title>
<path fill="none" stroke="black" d="M96,-84.91C96,-104.14 96,-131.8 96,-131.8 96,-131.8 254.83,-131.8 254.83,-131.8"/>
<polygon fill="black" stroke="black" points="254.83,-135.3 264.83,-131.8 254.83,-128.3 254.83,-135.3"/>
</g>
</g>
</svg>
