<?xml version="1.0" encoding="UTF-8" standalone="no"?>
<!DOCTYPE svg PUBLIC "-//W3C//DTD SVG 1.1//EN"
 "http://www.w3.org/Graphics/SVG/1.1/DTD/svg11.dtd">
<!-- Generated by graphviz version 5.0.0 (20220707.1540)
 -->
<!-- Title: dependencies Pages: 1 -->
<svg width="698pt" height="247pt"
 viewBox="0.00 0.00 698.00 246.80" xmlns="http://www.w3.org/2000/svg" xmlns:xlink="http://www.w3.org/1999/xlink">
<g id="graph0" class="graph" transform="scale(1 1) rotate(0) translate(4 242.8)">
<title>dependencies</title>
<polygon fill="white" stroke="transparent" points="-4,4 -4,-242.8 694,-242.8 694,4 -4,4"/>
<text text-anchor="middle" x="345" y="-8.2" font-family="sans-serif" font-size="14.00">dependencies</text>
<g id="clust1" class="cluster">
<title>cluster_AccountsModule</title>
<polygon fill="none" stroke="black" stroke-dasharray="1,5" points="8,-32.8 8,-230.8 682,-230.8 682,-32.8 8,-32.8"/>
</g>
<g id="clust4" class="cluster">
<title>cluster_AccountsModule_exports</title>
<polygon fill="none" stroke="black" points="382,-170.8 382,-222.8 512,-222.8 512,-170.8 382,-170.8"/>
</g>
<g id="clust3" class="cluster">
<title>cluster_AccountsModule_imports</title>
<polygon fill="none" stroke="black" points="333,-40.8 333,-92.8 674,-92.8 674,-40.8 333,-40.8"/>
</g>
<g id="clust6" class="cluster">
<title>cluster_AccountsModule_providers</title>
<polygon fill="none" stroke="black" points="16,-40.8 16,-92.8 325,-92.8 325,-40.8 16,-40.8"/>
</g>
<!-- ImagesModule -->
<g id="node1" class="node">
<title>ImagesModule</title>
<polygon fill="#8dd3c7" stroke="black" points="665.98,-84.8 662.98,-88.8 641.98,-88.8 638.98,-84.8 566.02,-84.8 566.02,-48.8 665.98,-48.8 665.98,-84.8"/>
<text text-anchor="middle" x="616" y="-62.6" font-family="Times,serif" font-size="14.00">ImagesModule</text>
</g>
<!-- AccountsModule -->
<g id="node4" class="node">
<title>AccountsModule</title>
<polygon fill="#8dd3c7" stroke="black" points="503.43,-149.8 500.43,-153.8 479.43,-153.8 476.43,-149.8 390.57,-149.8 390.57,-113.8 503.43,-113.8 503.43,-149.8"/>
<text text-anchor="middle" x="447" y="-127.6" font-family="Times,serif" font-size="14.00">AccountsModule</text>
</g>
<!-- ImagesModule&#45;&gt;AccountsModule -->
<g id="edge1" class="edge">
<title>ImagesModule&#45;&gt;AccountsModule</title>
<path fill="none" stroke="black" d="M616,-84.91C616,-104.14 616,-131.8 616,-131.8 616,-131.8 513.27,-131.8 513.27,-131.8"/>
<polygon fill="black" stroke="black" points="513.27,-128.3 503.27,-131.8 513.27,-135.3 513.27,-128.3"/>
</g>
<!-- PostsModule -->
<g id="node2" class="node">
<title>PostsModule</title>
<polygon fill="#8dd3c7" stroke="black" points="547.62,-84.8 544.62,-88.8 523.62,-88.8 520.62,-84.8 458.38,-84.8 458.38,-48.8 547.62,-48.8 547.62,-84.8"/>
<text text-anchor="middle" x="503" y="-62.6" font-family="Times,serif" font-size="14.00">PostsModule</text>
</g>
<!-- PostsModule&#45;&gt;AccountsModule -->
<g id="edge2" class="edge">
<title>PostsModule&#45;&gt;AccountsModule</title>
<path fill="none" stroke="black" d="M473.36,-84.91C473.36,-84.91 473.36,-103.79 473.36,-103.79"/>
<polygon fill="black" stroke="black" points="469.86,-103.79 473.36,-113.79 476.86,-103.79 469.86,-103.79"/>
</g>
<!-- PostsModule&#45;&gt;AccountsModule -->
<g id="edge3" class="edge">
<title>PostsModule&#45;&gt;AccountsModule</title>
<path fill="none" stroke="black" d="M488.29,-84.91C488.29,-84.91 488.29,-103.79 488.29,-103.79"/>
<polygon fill="black" stroke="black" points="484.79,-103.79 488.29,-113.79 491.79,-103.79 484.79,-103.79"/>
</g>
<!-- VideosModule -->
<g id="node3" class="node">
<title>VideosModule</title>
<polygon fill="#8dd3c7" stroke="black" points="440.71,-84.8 437.71,-88.8 416.71,-88.8 413.71,-84.8 341.29,-84.8 341.29,-48.8 440.71,-48.8 440.71,-84.8"/>
<text text-anchor="middle" x="391" y="-62.6" font-family="Times,serif" font-size="14.00">VideosModule</text>
</g>
<!-- VideosModule&#45;&gt;AccountsModule -->
<g id="edge4" class="edge">
<title>VideosModule&#45;&gt;AccountsModule</title>
<path fill="none" stroke="black" d="M415.7,-84.91C415.7,-84.91 415.7,-103.79 415.7,-103.79"/>
<polygon fill="black" stroke="black" points="412.2,-103.79 415.7,-113.79 419.2,-103.79 412.2,-103.79"/>
</g>
<!-- AccountsService  -->
<g id="node5" class="node">
<title>AccountsService </title>
<polygon fill="#fb8072" stroke="black" points="504.36,-214.8 389.64,-214.8 389.64,-178.8 504.36,-178.8 504.36,-214.8"/>
<text text-anchor="middle" x="447" y="-192.6" font-family="Times,serif" font-size="14.00">AccountsService </text>
</g>
<!-- AccountsModule&#45;&gt;AccountsService  -->
<g id="edge5" class="edge">
<title>AccountsModule&#45;&gt;AccountsService </title>
<path fill="none" stroke="black" stroke-dasharray="5,2" d="M447,-149.91C447,-149.91 447,-168.79 447,-168.79"/>
<polygon fill="black" stroke="black" points="443.5,-168.79 447,-178.79 450.5,-168.79 443.5,-168.79"/>
</g>
<!-- AccountsService -->
<g id="node6" class="node">
<title>AccountsService</title>
<ellipse fill="#fdb462" stroke="black" cx="241" cy="-66.8" rx="76.43" ry="18"/>
<text text-anchor="middle" x="241" y="-62.6" font-family="Times,serif" font-size="14.00">AccountsService</text>
</g>
<!-- AccountsService&#45;&gt;AccountsModule -->
<g id="edge6" class="edge">
<title>AccountsService&#45;&gt;AccountsModule</title>
<path fill="none" stroke="black" d="M241,-84.82C241,-102.17 241,-125.8 241,-125.8 241,-125.8 380.71,-125.8 380.71,-125.8"/>
<polygon fill="black" stroke="black" points="380.71,-129.3 390.71,-125.8 380.71,-122.3 380.71,-129.3"/>
</g>
<!-- VaultService -->
<g id="node7" class="node">
<title>VaultService</title>
<ellipse fill="#fdb462" stroke="black" cx="85" cy="-66.8" rx="61.4" ry="18"/>
<text text-anchor="middle" x="85" y="-62.6" font-family="Times,serif" font-size="14.00">VaultService</text>
</g>
<!-- VaultService&#45;&gt;AccountsModule -->
<g id="edge7" class="edge">
<title>VaultService&#45;&gt;AccountsModule</title>
<path fill="none" stroke="black" d="M85,-85.08C85,-106.12 85,-137.8 85,-137.8 85,-137.8 380.44,-137.8 380.44,-137.8"/>
<polygon fill="black" stroke="black" points="380.44,-141.3 390.44,-137.8 380.44,-134.3 380.44,-141.3"/>
</g>
</g>
</svg>
