<?xml version="1.0" encoding="UTF-8" standalone="no"?>
<!DOCTYPE svg PUBLIC "-//W3C//DTD SVG 1.1//EN"
 "http://www.w3.org/Graphics/SVG/1.1/DTD/svg11.dtd">
<!-- Generated by graphviz version 5.0.0 (20220707.1540)
 -->
<!-- Title: dependencies Pages: 1 -->
<svg width="747pt" height="174pt"
 viewBox="0.00 0.00 747.00 173.80" xmlns="http://www.w3.org/2000/svg" xmlns:xlink="http://www.w3.org/1999/xlink">
<g id="graph0" class="graph" transform="scale(1 1) rotate(0) translate(4 169.8)">
<title>dependencies</title>
<polygon fill="white" stroke="transparent" points="-4,4 -4,-169.8 743,-169.8 743,4 -4,4"/>
<text text-anchor="middle" x="369.5" y="-8.2" font-family="sans-serif" font-size="14.00">dependencies</text>
<g id="clust1" class="cluster">
<title>cluster_AppModule</title>
<polygon fill="none" stroke="black" stroke-dasharray="1,5" points="8,-32.8 8,-157.8 731,-157.8 731,-32.8 8,-32.8"/>
</g>
<g id="clust3" class="cluster">
<title>cluster_AppModule_imports</title>
<polygon fill="none" stroke="black" points="16,-40.8 16,-92.8 723,-92.8 723,-40.8 16,-40.8"/>
</g>
<!-- DatabaseModule -->
<g id="node1" class="node">
<title>DatabaseModule</title>
<polygon fill="#8dd3c7" stroke="black" points="715.36,-84.8 712.36,-88.8 691.36,-88.8 688.36,-84.8 604.64,-84.8 604.64,-48.8 715.36,-48.8 715.36,-84.8"/>
<text text-anchor="middle" x="660" y="-62.6" font-family="Times,serif" font-size="14.00">DatabaseModule</text>
</g>
<!-- AppModule -->
<g id="node7" class="node">
<title>AppModule</title>
<polygon fill="#8dd3c7" stroke="black" points="407.66,-149.8 404.66,-153.8 383.66,-153.8 380.66,-149.8 324.34,-149.8 324.34,-113.8 407.66,-113.8 407.66,-149.8"/>
<text text-anchor="middle" x="366" y="-127.6" font-family="Times,serif" font-size="14.00">AppModule</text>
</g>
<!-- DatabaseModule&#45;&gt;AppModule -->
<g id="edge1" class="edge">
<title>DatabaseModule&#45;&gt;AppModule</title>
<path fill="none" stroke="black" d="M660,-85.08C660,-106.12 660,-137.8 660,-137.8 660,-137.8 417.81,-137.8 417.81,-137.8"/>
<polygon fill="black" stroke="black" points="417.81,-134.3 407.81,-137.8 417.81,-141.3 417.81,-134.3"/>
</g>
<!-- ImagesModule -->
<g id="node2" class="node">
<title>ImagesModule</title>
<polygon fill="#8dd3c7" stroke="black" points="586.98,-84.8 583.98,-88.8 562.98,-88.8 559.98,-84.8 487.02,-84.8 487.02,-48.8 586.98,-48.8 586.98,-84.8"/>
<text text-anchor="middle" x="537" y="-62.6" font-family="Times,serif" font-size="14.00">ImagesModule</text>
</g>
<!-- ImagesModule&#45;&gt;AppModule -->
<g id="edge2" class="edge">
<title>ImagesModule&#45;&gt;AppModule</title>
<path fill="none" stroke="black" d="M537,-84.82C537,-102.17 537,-125.8 537,-125.8 537,-125.8 417.83,-125.8 417.83,-125.8"/>
<polygon fill="black" stroke="black" points="417.83,-122.3 407.83,-125.8 417.83,-129.3 417.83,-122.3"/>
</g>
<!-- MediaModule -->
<g id="node3" class="node">
<title>MediaModule</title>
<polygon fill="#8dd3c7" stroke="black" points="468.82,-84.8 465.82,-88.8 444.82,-88.8 441.82,-84.8 373.18,-84.8 373.18,-48.8 468.82,-48.8 468.82,-84.8"/>
<text text-anchor="middle" x="421" y="-62.6" font-family="Times,serif" font-size="14.00">MediaModule</text>
</g>
<!-- MediaModule&#45;&gt;AppModule -->
<g id="edge3" class="edge">
<title>MediaModule&#45;&gt;AppModule</title>
<path fill="none" stroke="black" d="M390.59,-84.91C390.59,-84.91 390.59,-103.79 390.59,-103.79"/>
<polygon fill="black" stroke="black" points="387.09,-103.79 390.59,-113.79 394.09,-103.79 387.09,-103.79"/>
</g>
<!-- PostsModule -->
<g id="node4" class="node">
<title>PostsModule</title>
<polygon fill="#8dd3c7" stroke="black" points="355.62,-84.8 352.62,-88.8 331.62,-88.8 328.62,-84.8 266.38,-84.8 266.38,-48.8 355.62,-48.8 355.62,-84.8"/>
<text text-anchor="middle" x="311" y="-62.6" font-family="Times,serif" font-size="14.00">PostsModule</text>
</g>
<!-- PostsModule&#45;&gt;AppModule -->
<g id="edge4" class="edge">
<title>PostsModule&#45;&gt;AppModule</title>
<path fill="none" stroke="black" d="M339.87,-84.91C339.87,-84.91 339.87,-103.79 339.87,-103.79"/>
<polygon fill="black" stroke="black" points="336.37,-103.79 339.87,-113.79 343.37,-103.79 336.37,-103.79"/>
</g>
<!-- SecurityModule -->
<g id="node5" class="node">
<title>SecurityModule</title>
<polygon fill="#8dd3c7" stroke="black" points="248.21,-84.8 245.21,-88.8 224.21,-88.8 221.21,-84.8 141.79,-84.8 141.79,-48.8 248.21,-48.8 248.21,-84.8"/>
<text text-anchor="middle" x="195" y="-62.6" font-family="Times,serif" font-size="14.00">SecurityModule</text>
</g>
<!-- SecurityModule&#45;&gt;AppModule -->
<g id="edge5" class="edge">
<title>SecurityModule&#45;&gt;AppModule</title>
<path fill="none" stroke="black" d="M195,-84.82C195,-102.17 195,-125.8 195,-125.8 195,-125.8 314.17,-125.8 314.17,-125.8"/>
<polygon fill="black" stroke="black" points="314.17,-129.3 324.17,-125.8 314.17,-122.3 314.17,-129.3"/>
</g>
<!-- VideosModule -->
<g id="node6" class="node">
<title>VideosModule</title>
<polygon fill="#8dd3c7" stroke="black" points="123.71,-84.8 120.71,-88.8 99.71,-88.8 96.71,-84.8 24.29,-84.8 24.29,-48.8 123.71,-48.8 123.71,-84.8"/>
<text text-anchor="middle" x="74" y="-62.6" font-family="Times,serif" font-size="14.00">VideosModule</text>
</g>
<!-- VideosModule&#45;&gt;AppModule -->
<g id="edge6" class="edge">
<title>VideosModule&#45;&gt;AppModule</title>
<path fill="none" stroke="black" d="M74,-85.08C74,-106.12 74,-137.8 74,-137.8 74,-137.8 314.16,-137.8 314.16,-137.8"/>
<polygon fill="black" stroke="black" points="314.16,-141.3 324.16,-137.8 314.16,-134.3 314.16,-141.3"/>
</g>
</g>
</svg>
