<?xml version="1.0" encoding="UTF-8" standalone="no"?>
<!DOCTYPE svg PUBLIC "-//W3C//DTD SVG 1.1//EN"
 "http://www.w3.org/Graphics/SVG/1.1/DTD/svg11.dtd">
<!-- Generated by graphviz version 5.0.0 (20220707.1540)
 -->
<!-- Title: dependencies Pages: 1 -->
<svg width="422pt" height="174pt"
 viewBox="0.00 0.00 422.00 173.80" xmlns="http://www.w3.org/2000/svg" xmlns:xlink="http://www.w3.org/1999/xlink">
<g id="graph0" class="graph" transform="scale(1 1) rotate(0) translate(4 169.8)">
<title>dependencies</title>
<polygon fill="white" stroke="transparent" points="-4,4 -4,-169.8 418,-169.8 418,4 -4,4"/>
<text text-anchor="middle" x="207" y="-8.2" font-family="sans-serif" font-size="14.00">dependencies</text>
<g id="clust1" class="cluster">
<title>cluster_AppModule</title>
<polygon fill="none" stroke="black" stroke-dasharray="1,5" points="8,-32.8 8,-157.8 406,-157.8 406,-32.8 8,-32.8"/>
</g>
<g id="clust3" class="cluster">
<title>cluster_AppModule_imports</title>
<polygon fill="none" stroke="black" points="16,-40.8 16,-92.8 398,-92.8 398,-40.8 16,-40.8"/>
</g>
<!-- AccountsModule -->
<g id="node1" class="node">
<title>AccountsModule</title>
<polygon fill="#8dd3c7" stroke="black" points="390.43,-84.8 387.43,-88.8 366.43,-88.8 363.43,-84.8 277.57,-84.8 277.57,-48.8 390.43,-48.8 390.43,-84.8"/>
<text text-anchor="middle" x="334" y="-62.6" font-family="Times,serif" font-size="14.00">AccountsModule</text>
</g>
<!-- AppModule -->
<g id="node4" class="node">
<title>AppModule</title>
<polygon fill="#8dd3c7" stroke="black" points="245.66,-149.8 242.66,-153.8 221.66,-153.8 218.66,-149.8 162.34,-149.8 162.34,-113.8 245.66,-113.8 245.66,-149.8"/>
<text text-anchor="middle" x="204" y="-127.6" font-family="Times,serif" font-size="14.00">AppModule</text>
</g>
<!-- AccountsModule&#45;&gt;AppModule -->
<g id="edge1" class="edge">
<title>AccountsModule&#45;&gt;AppModule</title>
<path fill="none" stroke="black" d="M334,-84.91C334,-104.14 334,-131.8 334,-131.8 334,-131.8 255.85,-131.8 255.85,-131.8"/>
<polygon fill="black" stroke="black" points="255.85,-128.3 245.85,-131.8 255.85,-135.3 255.85,-128.3"/>
</g>
<!-- DatabaseModule -->
<g id="node2" class="node">
<title>DatabaseModule</title>
<polygon fill="#8dd3c7" stroke="black" points="259.36,-84.8 256.36,-88.8 235.36,-88.8 232.36,-84.8 148.64,-84.8 148.64,-48.8 259.36,-48.8 259.36,-84.8"/>
<text text-anchor="middle" x="204" y="-62.6" font-family="Times,serif" font-size="14.00">DatabaseModule</text>
</g>
<!-- DatabaseModule&#45;&gt;AppModule -->
<g id="edge2" class="edge">
<title>DatabaseModule&#45;&gt;AppModule</title>
<path fill="none" stroke="black" d="M204,-84.91C204,-84.91 204,-103.79 204,-103.79"/>
<polygon fill="black" stroke="black" points="200.5,-103.79 204,-113.79 207.5,-103.79 200.5,-103.79"/>
</g>
<!-- SecurityModule -->
<g id="node3" class="node">
<title>SecurityModule</title>
<polygon fill="#8dd3c7" stroke="black" points="130.21,-84.8 127.21,-88.8 106.21,-88.8 103.21,-84.8 23.79,-84.8 23.79,-48.8 130.21,-48.8 130.21,-84.8"/>
<text text-anchor="middle" x="77" y="-62.6" font-family="Times,serif" font-size="14.00">SecurityModule</text>
</g>
<!-- SecurityModule&#45;&gt;AppModule -->
<g id="edge3" class="edge">
<title>SecurityModule&#45;&gt;AppModule</title>
<path fill="none" stroke="black" d="M77,-84.91C77,-104.14 77,-131.8 77,-131.8 77,-131.8 152.06,-131.8 152.06,-131.8"/>
<polygon fill="black" stroke="black" points="152.06,-135.3 162.06,-131.8 152.06,-128.3 152.06,-135.3"/>
</g>
</g>
</svg>
