<?xml version="1.0" encoding="UTF-8" standalone="no"?>
<!DOCTYPE svg PUBLIC "-//W3C//DTD SVG 1.1//EN"
 "http://www.w3.org/Graphics/SVG/1.1/DTD/svg11.dtd">
<!-- Generated by graphviz version 5.0.0 (20220707.1540)
 -->
<!-- Title: dependencies Pages: 1 -->
<svg width="634pt" height="174pt"
 viewBox="0.00 0.00 634.00 173.80" xmlns="http://www.w3.org/2000/svg" xmlns:xlink="http://www.w3.org/1999/xlink">
<g id="graph0" class="graph" transform="scale(1 1) rotate(0) translate(4 169.8)">
<title>dependencies</title>
<polygon fill="white" stroke="transparent" points="-4,4 -4,-169.8 630,-169.8 630,4 -4,4"/>
<text text-anchor="middle" x="313" y="-8.2" font-family="sans-serif" font-size="14.00">dependencies</text>
<g id="clust1" class="cluster">
<title>cluster_AppModule</title>
<polygon fill="none" stroke="black" stroke-dasharray="1,5" points="8,-32.8 8,-157.8 618,-157.8 618,-32.8 8,-32.8"/>
</g>
<g id="clust3" class="cluster">
<title>cluster_AppModule_imports</title>
<polygon fill="none" stroke="black" points="16,-40.8 16,-92.8 610,-92.8 610,-40.8 16,-40.8"/>
</g>
<!-- DatabaseModule -->
<g id="node1" class="node">
<title>DatabaseModule</title>
<polygon fill="#8dd3c7" stroke="black" points="602.36,-84.8 599.36,-88.8 578.36,-88.8 575.36,-84.8 491.64,-84.8 491.64,-48.8 602.36,-48.8 602.36,-84.8"/>
<text text-anchor="middle" x="547" y="-62.6" font-family="Times,serif" font-size="14.00">DatabaseModule</text>
</g>
<!-- AppModule -->
<g id="node6" class="node">
<title>AppModule</title>
<polygon fill="#8dd3c7" stroke="black" points="352.66,-149.8 349.66,-153.8 328.66,-153.8 325.66,-149.8 269.34,-149.8 269.34,-113.8 352.66,-113.8 352.66,-149.8"/>
<text text-anchor="middle" x="311" y="-127.6" font-family="Times,serif" font-size="14.00">AppModule</text>
</g>
<!-- DatabaseModule&#45;&gt;AppModule -->
<g id="edge1" class="edge">
<title>DatabaseModule&#45;&gt;AppModule</title>
<path fill="none" stroke="black" d="M547,-85.08C547,-106.12 547,-137.8 547,-137.8 547,-137.8 362.92,-137.8 362.92,-137.8"/>
<polygon fill="black" stroke="black" points="362.92,-134.3 352.92,-137.8 362.92,-141.3 362.92,-134.3"/>
</g>
<!-- ImagesModule -->
<g id="node2" class="node">
<title>ImagesModule</title>
<polygon fill="#8dd3c7" stroke="black" points="473.98,-84.8 470.98,-88.8 449.98,-88.8 446.98,-84.8 374.02,-84.8 374.02,-48.8 473.98,-48.8 473.98,-84.8"/>
<text text-anchor="middle" x="424" y="-62.6" font-family="Times,serif" font-size="14.00">ImagesModule</text>
</g>
<!-- ImagesModule&#45;&gt;AppModule -->
<g id="edge2" class="edge">
<title>ImagesModule&#45;&gt;AppModule</title>
<path fill="none" stroke="black" d="M424,-84.82C424,-102.17 424,-125.8 424,-125.8 424,-125.8 362.76,-125.8 362.76,-125.8"/>
<polygon fill="black" stroke="black" points="362.76,-122.3 352.76,-125.8 362.76,-129.3 362.76,-122.3"/>
</g>
<!-- PostsModule -->
<g id="node3" class="node">
<title>PostsModule</title>
<polygon fill="#8dd3c7" stroke="black" points="355.62,-84.8 352.62,-88.8 331.62,-88.8 328.62,-84.8 266.38,-84.8 266.38,-48.8 355.62,-48.8 355.62,-84.8"/>
<text text-anchor="middle" x="311" y="-62.6" font-family="Times,serif" font-size="14.00">PostsModule</text>
</g>
<!-- PostsModule&#45;&gt;AppModule -->
<g id="edge3" class="edge">
<title>PostsModule&#45;&gt;AppModule</title>
<path fill="none" stroke="black" d="M311,-84.91C311,-84.91 311,-103.79 311,-103.79"/>
<polygon fill="black" stroke="black" points="307.5,-103.79 311,-113.79 314.5,-103.79 307.5,-103.79"/>
</g>
<!-- SecurityModule -->
<g id="node4" class="node">
<title>SecurityModule</title>
<polygon fill="#8dd3c7" stroke="black" points="248.21,-84.8 245.21,-88.8 224.21,-88.8 221.21,-84.8 141.79,-84.8 141.79,-48.8 248.21,-48.8 248.21,-84.8"/>
<text text-anchor="middle" x="195" y="-62.6" font-family="Times,serif" font-size="14.00">SecurityModule</text>
</g>
<!-- SecurityModule&#45;&gt;AppModule -->
<g id="edge4" class="edge">
<title>SecurityModule&#45;&gt;AppModule</title>
<path fill="none" stroke="black" d="M195,-84.82C195,-102.17 195,-125.8 195,-125.8 195,-125.8 259.12,-125.8 259.12,-125.8"/>
<polygon fill="black" stroke="black" points="259.12,-129.3 269.12,-125.8 259.12,-122.3 259.12,-129.3"/>
</g>
<!-- VideosModule -->
<g id="node5" class="node">
<title>VideosModule</title>
<polygon fill="#8dd3c7" stroke="black" points="123.71,-84.8 120.71,-88.8 99.71,-88.8 96.71,-84.8 24.29,-84.8 24.29,-48.8 123.71,-48.8 123.71,-84.8"/>
<text text-anchor="middle" x="74" y="-62.6" font-family="Times,serif" font-size="14.00">VideosModule</text>
</g>
<!-- VideosModule&#45;&gt;AppModule -->
<g id="edge5" class="edge">
<title>VideosModule&#45;&gt;AppModule</title>
<path fill="none" stroke="black" d="M74,-85.08C74,-106.12 74,-137.8 74,-137.8 74,-137.8 259.17,-137.8 259.17,-137.8"/>
<polygon fill="black" stroke="black" points="259.17,-141.3 269.17,-137.8 259.17,-134.3 259.17,-141.3"/>
</g>
</g>
</svg>
