<?xml version="1.0" encoding="UTF-8" standalone="no"?>
<!DOCTYPE svg PUBLIC "-//W3C//DTD SVG 1.1//EN"
 "http://www.w3.org/Graphics/SVG/1.1/DTD/svg11.dtd">
<!-- Generated by graphviz version 5.0.0 (20220707.1540)
 -->
<!-- Title: dependencies Pages: 1 -->
<svg width="1536pt" height="337pt"
 viewBox="0.00 0.00 1536.00 336.80" xmlns="http://www.w3.org/2000/svg" xmlns:xlink="http://www.w3.org/1999/xlink">
<g id="graph0" class="graph" transform="scale(1 1) rotate(0) translate(4 332.8)">
<title>dependencies</title>
<polygon fill="white" stroke="transparent" points="-4,4 -4,-332.8 1532,-332.8 1532,4 -4,4"/>
<text text-anchor="middle" x="764" y="-8.2" font-family="sans-serif" font-size="14.00">dependencies</text>
<g id="clust1" class="cluster">
<title>cluster_AccountsModule</title>
<polygon fill="none" stroke="black" stroke-dasharray="1,5" points="1108,-32.8 1108,-244.8 1292,-244.8 1292,-32.8 1108,-32.8"/>
</g>
<g id="clust4" class="cluster">
<title>cluster_AccountsModule_exports</title>
<polygon fill="none" stroke="black" points="1125,-184.8 1125,-236.8 1255,-236.8 1255,-184.8 1125,-184.8"/>
</g>
<g id="clust6" class="cluster">
<title>cluster_AccountsModule_providers</title>
<polygon fill="none" stroke="black" points="1116,-40.8 1116,-92.8 1284,-92.8 1284,-40.8 1116,-40.8"/>
</g>
<g id="clust7" class="cluster">
<title>cluster_AppModule</title>
<polygon fill="none" stroke="black" stroke-dasharray="1,5" points="336,-176.8 336,-312.8 1059,-312.8 1059,-176.8 336,-176.8"/>
</g>
<g id="clust9" class="cluster">
<title>cluster_AppModule_imports</title>
<polygon fill="none" stroke="black" points="344,-184.8 344,-236.8 1051,-236.8 1051,-184.8 344,-184.8"/>
</g>
<g id="clust13" class="cluster">
<title>cluster_ConfigurationModule</title>
<polygon fill="none" stroke="black" stroke-dasharray="1,5" points="1300,-32.8 1300,-244.8 1520,-244.8 1520,-32.8 1300,-32.8"/>
</g>
<g id="clust16" class="cluster">
<title>cluster_ConfigurationModule_exports</title>
<polygon fill="none" stroke="black" points="1332,-184.8 1332,-236.8 1488,-236.8 1488,-184.8 1332,-184.8"/>
</g>
<g id="clust18" class="cluster">
<title>cluster_ConfigurationModule_providers</title>
<polygon fill="none" stroke="black" points="1308,-40.8 1308,-92.8 1512,-92.8 1512,-40.8 1308,-40.8"/>
</g>
<g id="clust25" class="cluster">
<title>cluster_ImagesModule</title>
<polygon fill="none" stroke="black" stroke-dasharray="1,5" points="588,-100.8 588,-168.8 756,-168.8 756,-100.8 588,-100.8"/>
</g>
<g id="clust30" class="cluster">
<title>cluster_ImagesModule_providers</title>
<polygon fill="none" stroke="black" points="596,-108.8 596,-160.8 748,-160.8 748,-108.8 596,-108.8"/>
</g>
<g id="clust31" class="cluster">
<title>cluster_MediaModule</title>
<polygon fill="none" stroke="black" stroke-dasharray="1,5" points="764,-100.8 764,-168.8 926,-168.8 926,-100.8 764,-100.8"/>
</g>
<g id="clust36" class="cluster">
<title>cluster_MediaModule_providers</title>
<polygon fill="none" stroke="black" points="772,-108.8 772,-160.8 918,-160.8 918,-108.8 772,-108.8"/>
</g>
<g id="clust37" class="cluster">
<title>cluster_PostsModule</title>
<polygon fill="none" stroke="black" stroke-dasharray="1,5" points="1067,-252.8 1067,-320.8 1335,-320.8 1335,-252.8 1067,-252.8"/>
</g>
<g id="clust40" class="cluster">
<title>cluster_PostsModule_exports</title>
<polygon fill="none" stroke="black" points="1219,-260.8 1219,-312.8 1327,-312.8 1327,-260.8 1219,-260.8"/>
</g>
<g id="clust42" class="cluster">
<title>cluster_PostsModule_providers</title>
<polygon fill="none" stroke="black" points="1075,-260.8 1075,-312.8 1211,-312.8 1211,-260.8 1075,-260.8"/>
</g>
<g id="clust49" class="cluster">
<title>cluster_SecurityModule</title>
<polygon fill="none" stroke="black" stroke-dasharray="1,5" points="8,-100.8 8,-168.8 580,-168.8 580,-100.8 8,-100.8"/>
</g>
<g id="clust51" class="cluster">
<title>cluster_SecurityModule_imports</title>
<polygon fill="none" stroke="black" points="464,-108.8 464,-160.8 572,-160.8 572,-108.8 464,-108.8"/>
</g>
<g id="clust52" class="cluster">
<title>cluster_SecurityModule_exports</title>
<polygon fill="none" stroke="black" points="332,-108.8 332,-160.8 456,-160.8 456,-108.8 332,-108.8"/>
</g>
<g id="clust54" class="cluster">
<title>cluster_SecurityModule_providers</title>
<polygon fill="none" stroke="black" points="16,-108.8 16,-160.8 324,-160.8 324,-108.8 16,-108.8"/>
</g>
<g id="clust55" class="cluster">
<title>cluster_VideosModule</title>
<polygon fill="none" stroke="black" stroke-dasharray="1,5" points="934,-100.8 934,-168.8 1100,-168.8 1100,-100.8 934,-100.8"/>
</g>
<g id="clust60" class="cluster">
<title>cluster_VideosModule_providers</title>
<polygon fill="none" stroke="black" points="942,-108.8 942,-160.8 1092,-160.8 1092,-108.8 942,-108.8"/>
</g>
<!-- AccountsService  -->
<g id="node1" class="node">
<title>AccountsService </title>
<polygon fill="#fb8072" stroke="black" points="1247.36,-228.8 1132.64,-228.8 1132.64,-192.8 1247.36,-192.8 1247.36,-228.8"/>
<text text-anchor="middle" x="1190" y="-206.6" font-family="Times,serif" font-size="14.00">AccountsService </text>
</g>
<!-- AccountsModule -->
<g id="node2" class="node">
<title>AccountsModule</title>
<polygon fill="#8dd3c7" stroke="black" points="1246.43,-152.8 1243.43,-156.8 1222.43,-156.8 1219.43,-152.8 1133.57,-152.8 1133.57,-116.8 1246.43,-116.8 1246.43,-152.8"/>
<text text-anchor="middle" x="1190" y="-130.6" font-family="Times,serif" font-size="14.00">AccountsModule</text>
</g>
<!-- AccountsModule&#45;&gt;AccountsService  -->
<g id="edge1" class="edge">
<title>AccountsModule&#45;&gt;AccountsService </title>
<path fill="none" stroke="black" stroke-dasharray="5,2" d="M1208.74,-152.81C1208.74,-152.81 1208.74,-182.65 1208.74,-182.65"/>
<polygon fill="black" stroke="black" points="1205.24,-182.65 1208.74,-192.65 1212.24,-182.65 1205.24,-182.65"/>
</g>
<!-- SecurityModule -->
<g id="node8" class="node">
<title>SecurityModule</title>
<polygon fill="#8dd3c7" stroke="black" points="587.21,-228.8 584.21,-232.8 563.21,-232.8 560.21,-228.8 480.79,-228.8 480.79,-192.8 587.21,-192.8 587.21,-228.8"/>
<text text-anchor="middle" x="534" y="-206.6" font-family="Times,serif" font-size="14.00">SecurityModule</text>
</g>
<!-- AccountsModule&#45;&gt;SecurityModule -->
<g id="edge15" class="edge">
<title>AccountsModule&#45;&gt;SecurityModule</title>
<path fill="none" stroke="black" d="M1171.26,-153.01C1171.26,-158.35 1171.26,-162.8 1171.26,-162.8 1171.26,-162.8 575.41,-162.8 575.41,-162.8 575.41,-162.8 575.41,-182.65 575.41,-182.65"/>
<polygon fill="black" stroke="black" points="571.91,-182.65 575.41,-192.65 578.91,-182.65 571.91,-182.65"/>
</g>
<!-- AccountsService -->
<g id="node3" class="node">
<title>AccountsService</title>
<ellipse fill="#fdb462" stroke="black" cx="1200" cy="-66.8" rx="76.43" ry="18"/>
<text text-anchor="middle" x="1200" y="-62.6" font-family="Times,serif" font-size="14.00">AccountsService</text>
</g>
<!-- AccountsService&#45;&gt;AccountsModule -->
<g id="edge2" class="edge">
<title>AccountsService&#45;&gt;AccountsModule</title>
<path fill="none" stroke="black" d="M1190,-84.67C1190,-84.67 1190,-106.34 1190,-106.34"/>
<polygon fill="black" stroke="black" points="1186.5,-106.34 1190,-116.34 1193.5,-106.34 1186.5,-106.34"/>
</g>
<!-- DatabaseModule -->
<g id="node4" class="node">
<title>DatabaseModule</title>
<polygon fill="#8dd3c7" stroke="black" points="462.36,-228.8 459.36,-232.8 438.36,-232.8 435.36,-228.8 351.64,-228.8 351.64,-192.8 462.36,-192.8 462.36,-228.8"/>
<text text-anchor="middle" x="407" y="-206.6" font-family="Times,serif" font-size="14.00">DatabaseModule</text>
</g>
<!-- AppModule -->
<g id="node10" class="node">
<title>AppModule</title>
<polygon fill="#8dd3c7" stroke="black" points="754.66,-304.8 751.66,-308.8 730.66,-308.8 727.66,-304.8 671.34,-304.8 671.34,-268.8 754.66,-268.8 754.66,-304.8"/>
<text text-anchor="middle" x="713" y="-282.6" font-family="Times,serif" font-size="14.00">AppModule</text>
</g>
<!-- DatabaseModule&#45;&gt;AppModule -->
<g id="edge3" class="edge">
<title>DatabaseModule&#45;&gt;AppModule</title>
<path fill="none" stroke="black" d="M407,-229C407,-253.16 407,-292.8 407,-292.8 407,-292.8 661.09,-292.8 661.09,-292.8"/>
<polygon fill="black" stroke="black" points="661.09,-296.3 671.09,-292.8 661.09,-289.3 661.09,-296.3"/>
</g>
<!-- ImagesModule -->
<g id="node5" class="node">
<title>ImagesModule</title>
<polygon fill="#8dd3c7" stroke="black" points="704.98,-228.8 701.98,-232.8 680.98,-232.8 677.98,-228.8 605.02,-228.8 605.02,-192.8 704.98,-192.8 704.98,-228.8"/>
<text text-anchor="middle" x="655" y="-206.6" font-family="Times,serif" font-size="14.00">ImagesModule</text>
</g>
<!-- ImagesModule&#45;&gt;AppModule -->
<g id="edge4" class="edge">
<title>ImagesModule&#45;&gt;AppModule</title>
<path fill="none" stroke="black" d="M688.08,-228.81C688.08,-228.81 688.08,-258.65 688.08,-258.65"/>
<polygon fill="black" stroke="black" points="684.58,-258.65 688.08,-268.65 691.58,-258.65 684.58,-258.65"/>
</g>
<!-- MediaModule -->
<g id="node6" class="node">
<title>MediaModule</title>
<polygon fill="#8dd3c7" stroke="black" points="818.82,-228.8 815.82,-232.8 794.82,-232.8 791.82,-228.8 723.18,-228.8 723.18,-192.8 818.82,-192.8 818.82,-228.8"/>
<text text-anchor="middle" x="771" y="-206.6" font-family="Times,serif" font-size="14.00">MediaModule</text>
</g>
<!-- MediaModule&#45;&gt;AppModule -->
<g id="edge5" class="edge">
<title>MediaModule&#45;&gt;AppModule</title>
<path fill="none" stroke="black" d="M739.09,-228.81C739.09,-228.81 739.09,-258.65 739.09,-258.65"/>
<polygon fill="black" stroke="black" points="735.59,-258.65 739.09,-268.65 742.59,-258.65 735.59,-258.65"/>
</g>
<!-- PostsModule -->
<g id="node7" class="node">
<title>PostsModule</title>
<polygon fill="#8dd3c7" stroke="black" points="1042.62,-228.8 1039.62,-232.8 1018.62,-232.8 1015.62,-228.8 953.38,-228.8 953.38,-192.8 1042.62,-192.8 1042.62,-228.8"/>
<text text-anchor="middle" x="998" y="-206.6" font-family="Times,serif" font-size="14.00">PostsModule</text>
</g>
<!-- PostsModule&#45;&gt;AppModule -->
<g id="edge6" class="edge">
<title>PostsModule&#45;&gt;AppModule</title>
<path fill="none" stroke="black" d="M983.15,-229C983.15,-253.16 983.15,-292.8 983.15,-292.8 983.15,-292.8 764.91,-292.8 764.91,-292.8"/>
<polygon fill="black" stroke="black" points="764.91,-289.3 754.91,-292.8 764.91,-296.3 764.91,-289.3"/>
</g>
<!-- PostsService  -->
<g id="node16" class="node">
<title>PostsService </title>
<polygon fill="#fb8072" stroke="black" points="1318.55,-304.8 1227.45,-304.8 1227.45,-268.8 1318.55,-268.8 1318.55,-304.8"/>
<text text-anchor="middle" x="1273" y="-282.6" font-family="Times,serif" font-size="14.00">PostsService </text>
</g>
<!-- PostsModule&#45;&gt;PostsService  -->
<g id="edge13" class="edge">
<title>PostsModule&#45;&gt;PostsService </title>
<path fill="none" stroke="black" stroke-dasharray="5,2" d="M1012.85,-228.91C1012.85,-238.7 1012.85,-248.8 1012.85,-248.8 1012.85,-248.8 1237.33,-248.8 1237.33,-248.8 1237.33,-248.8 1237.33,-258.69 1237.33,-258.69"/>
<polygon fill="black" stroke="black" points="1233.83,-258.69 1237.33,-268.69 1240.83,-258.69 1233.83,-258.69"/>
</g>
<!-- SecurityModule&#45;&gt;AppModule -->
<g id="edge7" class="edge">
<title>SecurityModule&#45;&gt;AppModule</title>
<path fill="none" stroke="black" d="M534,-228.83C534,-249.57 534,-280.8 534,-280.8 534,-280.8 661.03,-280.8 661.03,-280.8"/>
<polygon fill="black" stroke="black" points="661.03,-284.3 671.03,-280.8 661.03,-277.3 661.03,-284.3"/>
</g>
<!-- SecurityService  -->
<g id="node19" class="node">
<title>SecurityService </title>
<polygon fill="#fb8072" stroke="black" points="448.13,-152.8 339.87,-152.8 339.87,-116.8 448.13,-116.8 448.13,-152.8"/>
<text text-anchor="middle" x="394" y="-130.6" font-family="Times,serif" font-size="14.00">SecurityService </text>
</g>
<!-- SecurityModule&#45;&gt;SecurityService  -->
<g id="edge17" class="edge">
<title>SecurityModule&#45;&gt;SecurityService </title>
<path fill="none" stroke="black" stroke-dasharray="5,2" d="M480.84,-210.8C472.92,-210.8 467.35,-210.8 467.35,-210.8 467.35,-210.8 467.35,-134.8 467.35,-134.8 467.35,-134.8 458.08,-134.8 458.08,-134.8"/>
<polygon fill="black" stroke="black" points="458.08,-131.3 448.08,-134.8 458.08,-138.3 458.08,-131.3"/>
</g>
<!-- VideosModule -->
<g id="node9" class="node">
<title>VideosModule</title>
<polygon fill="#8dd3c7" stroke="black" points="935.71,-228.8 932.71,-232.8 911.71,-232.8 908.71,-228.8 836.29,-228.8 836.29,-192.8 935.71,-192.8 935.71,-228.8"/>
<text text-anchor="middle" x="886" y="-206.6" font-family="Times,serif" font-size="14.00">VideosModule</text>
</g>
<!-- VideosModule&#45;&gt;AppModule -->
<g id="edge8" class="edge">
<title>VideosModule&#45;&gt;AppModule</title>
<path fill="none" stroke="black" d="M886,-228.83C886,-249.57 886,-280.8 886,-280.8 886,-280.8 764.88,-280.8 764.88,-280.8"/>
<polygon fill="black" stroke="black" points="764.88,-277.3 754.88,-280.8 764.88,-284.3 764.88,-277.3"/>
</g>
<!-- ConfigurationService  -->
<g id="node11" class="node">
<title>ConfigurationService </title>
<polygon fill="#fb8072" stroke="black" points="1480.02,-228.8 1339.98,-228.8 1339.98,-192.8 1480.02,-192.8 1480.02,-228.8"/>
<text text-anchor="middle" x="1410" y="-206.6" font-family="Times,serif" font-size="14.00">ConfigurationService </text>
</g>
<!-- ConfigurationModule -->
<g id="node12" class="node">
<title>ConfigurationModule</title>
<polygon fill="#8dd3c7" stroke="black" points="1479.1,-152.8 1476.1,-156.8 1455.1,-156.8 1452.1,-152.8 1340.9,-152.8 1340.9,-116.8 1479.1,-116.8 1479.1,-152.8"/>
<text text-anchor="middle" x="1410" y="-130.6" font-family="Times,serif" font-size="14.00">ConfigurationModule</text>
</g>
<!-- ConfigurationModule&#45;&gt;ConfigurationService  -->
<g id="edge9" class="edge">
<title>ConfigurationModule&#45;&gt;ConfigurationService </title>
<path fill="none" stroke="black" stroke-dasharray="5,2" d="M1410,-152.81C1410,-152.81 1410,-182.65 1410,-182.65"/>
<polygon fill="black" stroke="black" points="1406.5,-182.65 1410,-192.65 1413.5,-182.65 1406.5,-182.65"/>
</g>
<!-- ConfigurationService -->
<g id="node13" class="node">
<title>ConfigurationService</title>
<ellipse fill="#fdb462" stroke="black" cx="1410" cy="-66.8" rx="94.34" ry="18"/>
<text text-anchor="middle" x="1410" y="-62.6" font-family="Times,serif" font-size="14.00">ConfigurationService</text>
</g>
<!-- ConfigurationService&#45;&gt;ConfigurationModule -->
<g id="edge10" class="edge">
<title>ConfigurationService&#45;&gt;ConfigurationModule</title>
<path fill="none" stroke="black" d="M1410,-85.02C1410,-85.02 1410,-106.53 1410,-106.53"/>
<polygon fill="black" stroke="black" points="1406.5,-106.53 1410,-116.53 1413.5,-106.53 1406.5,-106.53"/>
</g>
<!-- ImagesService -->
<g id="node14" class="node">
<title>ImagesService</title>
<ellipse fill="#fdb462" stroke="black" cx="672" cy="-134.8" rx="67.76" ry="18"/>
<text text-anchor="middle" x="672" y="-130.6" font-family="Times,serif" font-size="14.00">ImagesService</text>
</g>
<!-- ImagesService&#45;&gt;ImagesModule -->
<g id="edge11" class="edge">
<title>ImagesService&#45;&gt;ImagesModule</title>
<path fill="none" stroke="black" d="M655,-152.43C655,-152.43 655,-182.74 655,-182.74"/>
<polygon fill="black" stroke="black" points="651.5,-182.74 655,-192.74 658.5,-182.74 651.5,-182.74"/>
</g>
<!-- MediaService -->
<g id="node15" class="node">
<title>MediaService</title>
<ellipse fill="#fdb462" stroke="black" cx="845" cy="-134.8" rx="64.83" ry="18"/>
<text text-anchor="middle" x="845" y="-130.6" font-family="Times,serif" font-size="14.00">MediaService</text>
</g>
<!-- MediaService&#45;&gt;MediaModule -->
<g id="edge12" class="edge">
<title>MediaService&#45;&gt;MediaModule</title>
<path fill="none" stroke="black" d="M799.5,-147.69C799.5,-147.69 799.5,-182.71 799.5,-182.71"/>
<polygon fill="black" stroke="black" points="796,-182.71 799.5,-192.71 803,-182.71 796,-182.71"/>
</g>
<!-- PostsService -->
<g id="node17" class="node">
<title>PostsService</title>
<ellipse fill="#fdb462" stroke="black" cx="1143" cy="-286.8" rx="60.28" ry="18"/>
<text text-anchor="middle" x="1143" y="-282.6" font-family="Times,serif" font-size="14.00">PostsService</text>
</g>
<!-- PostsService&#45;&gt;PostsModule -->
<g id="edge14" class="edge">
<title>PostsService&#45;&gt;PostsModule</title>
<path fill="none" stroke="black" d="M1103.94,-272.86C1103.94,-250.92 1103.94,-210.8 1103.94,-210.8 1103.94,-210.8 1052.62,-210.8 1052.62,-210.8"/>
<polygon fill="black" stroke="black" points="1052.62,-207.3 1042.62,-210.8 1052.62,-214.3 1052.62,-207.3"/>
</g>
<!-- RolesModule -->
<g id="node18" class="node">
<title>RolesModule</title>
<polygon fill="#8dd3c7" stroke="black" points="563.94,-152.8 560.94,-156.8 539.94,-156.8 536.94,-152.8 472.06,-152.8 472.06,-116.8 563.94,-116.8 563.94,-152.8"/>
<text text-anchor="middle" x="518" y="-130.6" font-family="Times,serif" font-size="14.00">RolesModule</text>
</g>
<!-- RolesModule&#45;&gt;SecurityModule -->
<g id="edge16" class="edge">
<title>RolesModule&#45;&gt;SecurityModule</title>
<path fill="none" stroke="black" d="M543.01,-152.81C543.01,-152.81 543.01,-182.65 543.01,-182.65"/>
<polygon fill="black" stroke="black" points="539.51,-182.65 543.01,-192.65 546.51,-182.65 539.51,-182.65"/>
</g>
<!-- LocalStrategy -->
<g id="node20" class="node">
<title>LocalStrategy</title>
<ellipse fill="#fdb462" stroke="black" cx="89" cy="-134.8" rx="65.4" ry="18"/>
<text text-anchor="middle" x="89" y="-130.6" font-family="Times,serif" font-size="14.00">LocalStrategy</text>
</g>
<!-- LocalStrategy&#45;&gt;SecurityModule -->
<g id="edge18" class="edge">
<title>LocalStrategy&#45;&gt;SecurityModule</title>
<path fill="none" stroke="black" d="M89,-152.95C89,-166.54 89,-182.8 89,-182.8 89,-182.8 501.6,-182.8 501.6,-182.8 501.6,-182.8 501.6,-183.78 501.6,-183.78"/>
<polygon fill="black" stroke="black" points="498.1,-182.59 501.6,-192.59 505.1,-182.59 498.1,-182.59"/>
</g>
<!-- SecurityService -->
<g id="node21" class="node">
<title>SecurityService</title>
<ellipse fill="#fdb462" stroke="black" cx="244" cy="-134.8" rx="72.35" ry="18"/>
<text text-anchor="middle" x="244" y="-130.6" font-family="Times,serif" font-size="14.00">SecurityService</text>
</g>
<!-- SecurityService&#45;&gt;SecurityModule -->
<g id="edge19" class="edge">
<title>SecurityService&#45;&gt;SecurityModule</title>
<path fill="none" stroke="black" d="M244,-152.91C244,-162.7 244,-172.8 244,-172.8 244,-172.8 522.31,-172.8 522.31,-172.8 522.31,-172.8 522.31,-182.69 522.31,-182.69"/>
<polygon fill="black" stroke="black" points="518.81,-182.69 522.31,-192.69 525.81,-182.69 518.81,-182.69"/>
</g>
<!-- VideosService -->
<g id="node22" class="node">
<title>VideosService</title>
<ellipse fill="#fdb462" stroke="black" cx="1017" cy="-134.8" rx="67.2" ry="18"/>
<text text-anchor="middle" x="1017" y="-130.6" font-family="Times,serif" font-size="14.00">VideosService</text>
</g>
<!-- VideosService&#45;&gt;VideosModule -->
<g id="edge20" class="edge">
<title>VideosService&#45;&gt;VideosModule</title>
<path fill="none" stroke="black" d="M949.42,-134.8C934.3,-134.8 922.64,-134.8 922.64,-134.8 922.64,-134.8 922.64,-182.79 922.64,-182.79"/>
<polygon fill="black" stroke="black" points="919.14,-182.79 922.64,-192.79 926.14,-182.79 919.14,-182.79"/>
</g>
</g>
</svg>
