<?xml version="1.0" encoding="UTF-8" standalone="no"?>
<!DOCTYPE svg PUBLIC "-//W3C//DTD SVG 1.1//EN"
 "http://www.w3.org/Graphics/SVG/1.1/DTD/svg11.dtd">
<!-- Generated by graphviz version 5.0.0 (20220707.1540)
 -->
<!-- Title: dependencies Pages: 1 -->
<svg width="1788pt" height="394pt"
 viewBox="0.00 0.00 1788.00 393.80" xmlns="http://www.w3.org/2000/svg" xmlns:xlink="http://www.w3.org/1999/xlink">
<g id="graph0" class="graph" transform="scale(1 1) rotate(0) translate(4 389.8)">
<title>dependencies</title>
<polygon fill="white" stroke="transparent" points="-4,4 -4,-389.8 1784,-389.8 1784,4 -4,4"/>
<text text-anchor="middle" x="890" y="-8.2" font-family="sans-serif" font-size="14.00">dependencies</text>
<g id="clust1" class="cluster">
<title>cluster_AccountsModule</title>
<polygon fill="none" stroke="black" stroke-dasharray="1,5" points="594,-108.8 594,-320.8 1268,-320.8 1268,-108.8 594,-108.8"/>
</g>
<g id="clust3" class="cluster">
<title>cluster_AccountsModule_imports</title>
<polygon fill="none" stroke="black" points="919,-116.8 919,-168.8 1260,-168.8 1260,-116.8 919,-116.8"/>
</g>
<g id="clust4" class="cluster">
<title>cluster_AccountsModule_exports</title>
<polygon fill="none" stroke="black" points="752,-260.8 752,-312.8 882,-312.8 882,-260.8 752,-260.8"/>
</g>
<g id="clust6" class="cluster">
<title>cluster_AccountsModule_providers</title>
<polygon fill="none" stroke="black" points="602,-116.8 602,-168.8 911,-168.8 911,-116.8 602,-116.8"/>
</g>
<g id="clust7" class="cluster">
<title>cluster_AppModule</title>
<polygon fill="none" stroke="black" stroke-dasharray="1,5" points="319,-252.8 319,-377.8 586,-377.8 586,-252.8 319,-252.8"/>
</g>
<g id="clust9" class="cluster">
<title>cluster_AppModule_imports</title>
<polygon fill="none" stroke="black" points="327,-260.8 327,-312.8 578,-312.8 578,-260.8 327,-260.8"/>
</g>
<g id="clust13" class="cluster">
<title>cluster_ConfigurationModule</title>
<polygon fill="none" stroke="black" stroke-dasharray="1,5" points="1552,-32.8 1552,-244.8 1772,-244.8 1772,-32.8 1552,-32.8"/>
</g>
<g id="clust16" class="cluster">
<title>cluster_ConfigurationModule_exports</title>
<polygon fill="none" stroke="black" points="1584,-184.8 1584,-236.8 1740,-236.8 1740,-184.8 1584,-184.8"/>
</g>
<g id="clust18" class="cluster">
<title>cluster_ConfigurationModule_providers</title>
<polygon fill="none" stroke="black" points="1560,-40.8 1560,-92.8 1764,-92.8 1764,-40.8 1560,-40.8"/>
</g>
<g id="clust25" class="cluster">
<title>cluster_ImagesModule</title>
<polygon fill="none" stroke="black" stroke-dasharray="1,5" points="864,-32.8 864,-100.8 1032,-100.8 1032,-32.8 864,-32.8"/>
</g>
<g id="clust30" class="cluster">
<title>cluster_ImagesModule_providers</title>
<polygon fill="none" stroke="black" points="872,-40.8 872,-92.8 1024,-92.8 1024,-40.8 872,-40.8"/>
</g>
<g id="clust31" class="cluster">
<title>cluster_PostsModule</title>
<polygon fill="none" stroke="black" stroke-dasharray="1,5" points="1276,-176.8 1276,-244.8 1544,-244.8 1544,-176.8 1276,-176.8"/>
</g>
<g id="clust34" class="cluster">
<title>cluster_PostsModule_exports</title>
<polygon fill="none" stroke="black" points="1428,-184.8 1428,-236.8 1536,-236.8 1536,-184.8 1428,-184.8"/>
</g>
<g id="clust36" class="cluster">
<title>cluster_PostsModule_providers</title>
<polygon fill="none" stroke="black" points="1284,-184.8 1284,-236.8 1420,-236.8 1420,-184.8 1284,-184.8"/>
</g>
<g id="clust43" class="cluster">
<title>cluster_SecurityModule</title>
<polygon fill="none" stroke="black" stroke-dasharray="1,5" points="8,-176.8 8,-244.8 580,-244.8 580,-176.8 8,-176.8"/>
</g>
<g id="clust45" class="cluster">
<title>cluster_SecurityModule_imports</title>
<polygon fill="none" stroke="black" points="464,-184.8 464,-236.8 572,-236.8 572,-184.8 464,-184.8"/>
</g>
<g id="clust46" class="cluster">
<title>cluster_SecurityModule_exports</title>
<polygon fill="none" stroke="black" points="332,-184.8 332,-236.8 456,-236.8 456,-184.8 332,-184.8"/>
</g>
<g id="clust48" class="cluster">
<title>cluster_SecurityModule_providers</title>
<polygon fill="none" stroke="black" points="16,-184.8 16,-236.8 324,-236.8 324,-184.8 16,-184.8"/>
</g>
<g id="clust49" class="cluster">
<title>cluster_VideosModule</title>
<polygon fill="none" stroke="black" stroke-dasharray="1,5" points="1040,-32.8 1040,-100.8 1206,-100.8 1206,-32.8 1040,-32.8"/>
</g>
<g id="clust54" class="cluster">
<title>cluster_VideosModule_providers</title>
<polygon fill="none" stroke="black" points="1048,-40.8 1048,-92.8 1198,-92.8 1198,-40.8 1048,-40.8"/>
</g>
<!-- ImagesModule -->
<g id="node1" class="node">
<title>ImagesModule</title>
<polygon fill="#8dd3c7" stroke="black" points="1026.98,-160.8 1023.98,-164.8 1002.98,-164.8 999.98,-160.8 927.02,-160.8 927.02,-124.8 1026.98,-124.8 1026.98,-160.8"/>
<text text-anchor="middle" x="977" y="-138.6" font-family="Times,serif" font-size="14.00">ImagesModule</text>
</g>
<!-- AccountsModule -->
<g id="node4" class="node">
<title>AccountsModule</title>
<polygon fill="#8dd3c7" stroke="black" points="958.43,-228.8 955.43,-232.8 934.43,-232.8 931.43,-228.8 845.57,-228.8 845.57,-192.8 958.43,-192.8 958.43,-228.8"/>
<text text-anchor="middle" x="902" y="-206.6" font-family="Times,serif" font-size="14.00">AccountsModule</text>
</g>
<!-- ImagesModule&#45;&gt;AccountsModule -->
<g id="edge1" class="edge">
<title>ImagesModule&#45;&gt;AccountsModule</title>
<path fill="none" stroke="black" d="M942.61,-161.02C942.61,-161.02 942.61,-182.53 942.61,-182.53"/>
<polygon fill="black" stroke="black" points="939.11,-182.53 942.61,-192.53 946.11,-182.53 939.11,-182.53"/>
</g>
<!-- PostsModule -->
<g id="node2" class="node">
<title>PostsModule</title>
<polygon fill="#8dd3c7" stroke="black" points="1251.62,-160.8 1248.62,-164.8 1227.62,-164.8 1224.62,-160.8 1162.38,-160.8 1162.38,-124.8 1251.62,-124.8 1251.62,-160.8"/>
<text text-anchor="middle" x="1207" y="-138.6" font-family="Times,serif" font-size="14.00">PostsModule</text>
</g>
<!-- PostsModule&#45;&gt;AccountsModule -->
<g id="edge2" class="edge">
<title>PostsModule&#45;&gt;AccountsModule</title>
<path fill="none" stroke="black" d="M1184.72,-160.91C1184.72,-180.14 1184.72,-207.8 1184.72,-207.8 1184.72,-207.8 968.53,-207.8 968.53,-207.8"/>
<polygon fill="black" stroke="black" points="968.53,-204.3 958.53,-207.8 968.53,-211.3 968.53,-204.3"/>
</g>
<!-- PostsModule&#45;&gt;AccountsModule -->
<g id="edge3" class="edge">
<title>PostsModule&#45;&gt;AccountsModule</title>
<path fill="none" stroke="black" d="M1207,-160.97C1207,-182.3 1207,-214.8 1207,-214.8 1207,-214.8 968.3,-214.8 968.3,-214.8"/>
<polygon fill="black" stroke="black" points="968.3,-211.3 958.3,-214.8 968.3,-218.3 968.3,-211.3"/>
</g>
<!-- PostsService  -->
<g id="node15" class="node">
<title>PostsService </title>
<polygon fill="#fb8072" stroke="black" points="1527.55,-228.8 1436.45,-228.8 1436.45,-192.8 1527.55,-192.8 1527.55,-228.8"/>
<text text-anchor="middle" x="1482" y="-206.6" font-family="Times,serif" font-size="14.00">PostsService </text>
</g>
<!-- PostsModule&#45;&gt;PostsService  -->
<g id="edge14" class="edge">
<title>PostsModule&#45;&gt;PostsService </title>
<path fill="none" stroke="black" stroke-dasharray="5,2" d="M1251.8,-142.8C1329.72,-142.8 1482,-142.8 1482,-142.8 1482,-142.8 1482,-182.58 1482,-182.58"/>
<polygon fill="black" stroke="black" points="1478.5,-182.58 1482,-192.58 1485.5,-182.58 1478.5,-182.58"/>
</g>
<!-- VideosModule -->
<g id="node3" class="node">
<title>VideosModule</title>
<polygon fill="#8dd3c7" stroke="black" points="1144.71,-160.8 1141.71,-164.8 1120.71,-164.8 1117.71,-160.8 1045.29,-160.8 1045.29,-124.8 1144.71,-124.8 1144.71,-160.8"/>
<text text-anchor="middle" x="1095" y="-138.6" font-family="Times,serif" font-size="14.00">VideosModule</text>
</g>
<!-- VideosModule&#45;&gt;AccountsModule -->
<g id="edge4" class="edge">
<title>VideosModule&#45;&gt;AccountsModule</title>
<path fill="none" stroke="black" d="M1095,-160.83C1095,-177.86 1095,-200.8 1095,-200.8 1095,-200.8 968.34,-200.8 968.34,-200.8"/>
<polygon fill="black" stroke="black" points="968.34,-197.3 958.34,-200.8 968.34,-204.3 968.34,-197.3"/>
</g>
<!-- AccountsService  -->
<g id="node5" class="node">
<title>AccountsService </title>
<polygon fill="#fb8072" stroke="black" points="874.36,-304.8 759.64,-304.8 759.64,-268.8 874.36,-268.8 874.36,-304.8"/>
<text text-anchor="middle" x="817" y="-282.6" font-family="Times,serif" font-size="14.00">AccountsService </text>
</g>
<!-- AccountsModule&#45;&gt;AccountsService  -->
<g id="edge5" class="edge">
<title>AccountsModule&#45;&gt;AccountsService </title>
<path fill="none" stroke="black" stroke-dasharray="5,2" d="M864.71,-228.81C864.71,-228.81 864.71,-258.65 864.71,-258.65"/>
<polygon fill="black" stroke="black" points="861.21,-258.65 864.71,-268.65 868.21,-258.65 861.21,-258.65"/>
</g>
<!-- SecurityModule -->
<g id="node9" class="node">
<title>SecurityModule</title>
<polygon fill="#8dd3c7" stroke="black" points="441.21,-304.8 438.21,-308.8 417.21,-308.8 414.21,-304.8 334.79,-304.8 334.79,-268.8 441.21,-268.8 441.21,-304.8"/>
<text text-anchor="middle" x="388" y="-282.6" font-family="Times,serif" font-size="14.00">SecurityModule</text>
</g>
<!-- AccountsModule&#45;&gt;SecurityModule -->
<g id="edge16" class="edge">
<title>AccountsModule&#45;&gt;SecurityModule</title>
<path fill="none" stroke="black" d="M855.25,-228.91C855.25,-238.7 855.25,-248.8 855.25,-248.8 855.25,-248.8 407.38,-248.8 407.38,-248.8 407.38,-248.8 407.38,-258.69 407.38,-258.69"/>
<polygon fill="black" stroke="black" points="403.88,-258.69 407.38,-268.69 410.88,-258.69 403.88,-258.69"/>
</g>
<!-- AppModule -->
<g id="node10" class="node">
<title>AppModule</title>
<polygon fill="#8dd3c7" stroke="black" points="556.66,-369.8 553.66,-373.8 532.66,-373.8 529.66,-369.8 473.34,-369.8 473.34,-333.8 556.66,-333.8 556.66,-369.8"/>
<text text-anchor="middle" x="515" y="-347.6" font-family="Times,serif" font-size="14.00">AppModule</text>
</g>
<!-- AccountsModule&#45;&gt;AppModule -->
<g id="edge8" class="edge">
<title>AccountsModule&#45;&gt;AppModule</title>
<path fill="none" stroke="black" d="M916.2,-228.94C916.2,-267.03 916.2,-351.8 916.2,-351.8 916.2,-351.8 566.8,-351.8 566.8,-351.8"/>
<polygon fill="black" stroke="black" points="566.8,-348.3 556.8,-351.8 566.8,-355.3 566.8,-348.3"/>
</g>
<!-- AccountsService -->
<g id="node6" class="node">
<title>AccountsService</title>
<ellipse fill="#fdb462" stroke="black" cx="827" cy="-142.8" rx="76.43" ry="18"/>
<text text-anchor="middle" x="827" y="-138.6" font-family="Times,serif" font-size="14.00">AccountsService</text>
</g>
<!-- AccountsService&#45;&gt;AccountsModule -->
<g id="edge6" class="edge">
<title>AccountsService&#45;&gt;AccountsModule</title>
<path fill="none" stroke="black" d="M874.63,-156.89C874.63,-156.89 874.63,-182.59 874.63,-182.59"/>
<polygon fill="black" stroke="black" points="871.13,-182.59 874.63,-192.59 878.13,-182.59 871.13,-182.59"/>
</g>
<!-- VaultService -->
<g id="node7" class="node">
<title>VaultService</title>
<ellipse fill="#fdb462" stroke="black" cx="671" cy="-142.8" rx="61.4" ry="18"/>
<text text-anchor="middle" x="671" y="-138.6" font-family="Times,serif" font-size="14.00">VaultService</text>
</g>
<!-- VaultService&#45;&gt;AccountsModule -->
<g id="edge7" class="edge">
<title>VaultService&#45;&gt;AccountsModule</title>
<path fill="none" stroke="black" d="M671,-161.02C671,-181.17 671,-210.8 671,-210.8 671,-210.8 835.49,-210.8 835.49,-210.8"/>
<polygon fill="black" stroke="black" points="835.49,-214.3 845.49,-210.8 835.49,-207.3 835.49,-214.3"/>
</g>
<!-- DatabaseModule -->
<g id="node8" class="node">
<title>DatabaseModule</title>
<polygon fill="#8dd3c7" stroke="black" points="570.36,-304.8 567.36,-308.8 546.36,-308.8 543.36,-304.8 459.64,-304.8 459.64,-268.8 570.36,-268.8 570.36,-304.8"/>
<text text-anchor="middle" x="515" y="-282.6" font-family="Times,serif" font-size="14.00">DatabaseModule</text>
</g>
<!-- DatabaseModule&#45;&gt;AppModule -->
<g id="edge9" class="edge">
<title>DatabaseModule&#45;&gt;AppModule</title>
<path fill="none" stroke="black" d="M515,-304.91C515,-304.91 515,-323.79 515,-323.79"/>
<polygon fill="black" stroke="black" points="511.5,-323.79 515,-333.79 518.5,-323.79 511.5,-323.79"/>
</g>
<!-- SecurityModule&#45;&gt;AppModule -->
<g id="edge10" class="edge">
<title>SecurityModule&#45;&gt;AppModule</title>
<path fill="none" stroke="black" d="M388,-304.91C388,-324.14 388,-351.8 388,-351.8 388,-351.8 463.06,-351.8 463.06,-351.8"/>
<polygon fill="black" stroke="black" points="463.06,-355.3 473.06,-351.8 463.06,-348.3 463.06,-355.3"/>
</g>
<!-- SecurityService  -->
<g id="node18" class="node">
<title>SecurityService </title>
<polygon fill="#fb8072" stroke="black" points="448.13,-228.8 339.87,-228.8 339.87,-192.8 448.13,-192.8 448.13,-228.8"/>
<text text-anchor="middle" x="394" y="-206.6" font-family="Times,serif" font-size="14.00">SecurityService </text>
</g>
<!-- SecurityModule&#45;&gt;SecurityService  -->
<g id="edge18" class="edge">
<title>SecurityModule&#45;&gt;SecurityService </title>
<path fill="none" stroke="black" stroke-dasharray="5,2" d="M373.66,-268.79C373.66,-268.79 373.66,-238.95 373.66,-238.95"/>
<polygon fill="black" stroke="black" points="377.16,-238.95 373.66,-228.95 370.16,-238.95 377.16,-238.95"/>
</g>
<!-- ConfigurationService  -->
<g id="node11" class="node">
<title>ConfigurationService </title>
<polygon fill="#fb8072" stroke="black" points="1732.02,-228.8 1591.98,-228.8 1591.98,-192.8 1732.02,-192.8 1732.02,-228.8"/>
<text text-anchor="middle" x="1662" y="-206.6" font-family="Times,serif" font-size="14.00">ConfigurationService </text>
</g>
<!-- ConfigurationModule -->
<g id="node12" class="node">
<title>ConfigurationModule</title>
<polygon fill="#8dd3c7" stroke="black" points="1731.1,-160.8 1728.1,-164.8 1707.1,-164.8 1704.1,-160.8 1592.9,-160.8 1592.9,-124.8 1731.1,-124.8 1731.1,-160.8"/>
<text text-anchor="middle" x="1662" y="-138.6" font-family="Times,serif" font-size="14.00">ConfigurationModule</text>
</g>
<!-- ConfigurationModule&#45;&gt;ConfigurationService  -->
<g id="edge11" class="edge">
<title>ConfigurationModule&#45;&gt;ConfigurationService </title>
<path fill="none" stroke="black" stroke-dasharray="5,2" d="M1662,-161.02C1662,-161.02 1662,-182.53 1662,-182.53"/>
<polygon fill="black" stroke="black" points="1658.5,-182.53 1662,-192.53 1665.5,-182.53 1658.5,-182.53"/>
</g>
<!-- ConfigurationService -->
<g id="node13" class="node">
<title>ConfigurationService</title>
<ellipse fill="#fdb462" stroke="black" cx="1662" cy="-66.8" rx="94.34" ry="18"/>
<text text-anchor="middle" x="1662" y="-62.6" font-family="Times,serif" font-size="14.00">ConfigurationService</text>
</g>
<!-- ConfigurationService&#45;&gt;ConfigurationModule -->
<g id="edge12" class="edge">
<title>ConfigurationService&#45;&gt;ConfigurationModule</title>
<path fill="none" stroke="black" d="M1662,-84.81C1662,-84.81 1662,-114.65 1662,-114.65"/>
<polygon fill="black" stroke="black" points="1658.5,-114.65 1662,-124.65 1665.5,-114.65 1658.5,-114.65"/>
</g>
<!-- ImagesService -->
<g id="node14" class="node">
<title>ImagesService</title>
<ellipse fill="#fdb462" stroke="black" cx="948" cy="-66.8" rx="67.76" ry="18"/>
<text text-anchor="middle" x="948" y="-62.6" font-family="Times,serif" font-size="14.00">ImagesService</text>
</g>
<!-- ImagesService&#45;&gt;ImagesModule -->
<g id="edge13" class="edge">
<title>ImagesService&#45;&gt;ImagesModule</title>
<path fill="none" stroke="black" d="M971.44,-84.05C971.44,-84.05 971.44,-114.56 971.44,-114.56"/>
<polygon fill="black" stroke="black" points="967.94,-114.56 971.44,-124.56 974.94,-114.56 967.94,-114.56"/>
</g>
<!-- PostsService -->
<g id="node16" class="node">
<title>PostsService</title>
<ellipse fill="#fdb462" stroke="black" cx="1352" cy="-210.8" rx="60.28" ry="18"/>
<text text-anchor="middle" x="1352" y="-206.6" font-family="Times,serif" font-size="14.00">PostsService</text>
</g>
<!-- PostsService&#45;&gt;PostsModule -->
<g id="edge15" class="edge">
<title>PostsService&#45;&gt;PostsModule</title>
<path fill="none" stroke="black" d="M1303.85,-221.8C1269.47,-221.8 1229.28,-221.8 1229.28,-221.8 1229.28,-221.8 1229.28,-171.12 1229.28,-171.12"/>
<polygon fill="black" stroke="black" points="1232.78,-171.12 1229.28,-161.12 1225.78,-171.12 1232.78,-171.12"/>
</g>
<!-- RolesModule -->
<g id="node17" class="node">
<title>RolesModule</title>
<polygon fill="#8dd3c7" stroke="black" points="563.94,-228.8 560.94,-232.8 539.94,-232.8 536.94,-228.8 472.06,-228.8 472.06,-192.8 563.94,-192.8 563.94,-228.8"/>
<text text-anchor="middle" x="518" y="-206.6" font-family="Times,serif" font-size="14.00">RolesModule</text>
</g>
<!-- RolesModule&#45;&gt;SecurityModule -->
<g id="edge17" class="edge">
<title>RolesModule&#45;&gt;SecurityModule</title>
<path fill="none" stroke="black" d="M472.04,-210.8C461.75,-210.8 453.82,-210.8 453.82,-210.8 453.82,-210.8 453.82,-286.8 453.82,-286.8 453.82,-286.8 451.13,-286.8 451.13,-286.8"/>
<polygon fill="black" stroke="black" points="451.13,-283.3 441.13,-286.8 451.13,-290.3 451.13,-283.3"/>
</g>
<!-- LocalStrategy -->
<g id="node19" class="node">
<title>LocalStrategy</title>
<ellipse fill="#fdb462" stroke="black" cx="251" cy="-210.8" rx="65.4" ry="18"/>
<text text-anchor="middle" x="251" y="-206.6" font-family="Times,serif" font-size="14.00">LocalStrategy</text>
</g>
<!-- LocalStrategy&#45;&gt;SecurityModule -->
<g id="edge19" class="edge">
<title>LocalStrategy&#45;&gt;SecurityModule</title>
<path fill="none" stroke="black" d="M251,-228.83C251,-249.57 251,-280.8 251,-280.8 251,-280.8 324.64,-280.8 324.64,-280.8"/>
<polygon fill="black" stroke="black" points="324.64,-284.3 334.64,-280.8 324.64,-277.3 324.64,-284.3"/>
</g>
<!-- SecurityService -->
<g id="node20" class="node">
<title>SecurityService</title>
<ellipse fill="#fdb462" stroke="black" cx="96" cy="-210.8" rx="72.35" ry="18"/>
<text text-anchor="middle" x="96" y="-206.6" font-family="Times,serif" font-size="14.00">SecurityService</text>
</g>
<!-- SecurityService&#45;&gt;SecurityModule -->
<g id="edge20" class="edge">
<title>SecurityService&#45;&gt;SecurityModule</title>
<path fill="none" stroke="black" d="M96,-229C96,-253.16 96,-292.8 96,-292.8 96,-292.8 324.78,-292.8 324.78,-292.8"/>
<polygon fill="black" stroke="black" points="324.78,-296.3 334.78,-292.8 324.78,-289.3 324.78,-296.3"/>
</g>
<!-- VideosService -->
<g id="node21" class="node">
<title>VideosService</title>
<ellipse fill="#fdb462" stroke="black" cx="1123" cy="-66.8" rx="67.2" ry="18"/>
<text text-anchor="middle" x="1123" y="-62.6" font-family="Times,serif" font-size="14.00">VideosService</text>
</g>
<!-- VideosService&#45;&gt;VideosModule -->
<g id="edge21" class="edge">
<title>VideosService&#45;&gt;VideosModule</title>
<path fill="none" stroke="black" d="M1100.13,-84.05C1100.13,-84.05 1100.13,-114.56 1100.13,-114.56"/>
<polygon fill="black" stroke="black" points="1096.63,-114.56 1100.13,-124.56 1103.63,-114.56 1096.63,-114.56"/>
</g>
</g>
</svg>
